HIERARCHY
ROOT hip
{
  OFFSET 0 0 0
  CHANNELS 6 Xposition Yposition Zposition Zrotation Yrotation Xrotation
  JOINT abdomen
  {
    OFFSET 0 20.6881 -0.73152
    CHANNELS 3 Zrotation Xrotation Yrotation
    JOINT chest
    {
      OFFSET 0 11.7043 -0.48768
      CHANNELS 3 Zrotation Xrotation Yrotation
      JOINT neck
      {
        OFFSET 0 22.1894 -2.19456
        CHANNELS 3 Zrotation Xrotation Yrotation
        JOINT head
        {
          OFFSET -0.24384 7.07133 1.2192
          CHANNELS 3 Zrotation Xrotation Yrotation
          JOINT leftEye
          {
            OFFSET 4.14528 8.04674 8.04672
            CHANNELS 3 Zrotation Xrotation Yrotation
            End Site
            {
              OFFSET 1 0 0
            }
          }
          JOINT rightEye
          {
            OFFSET -3.6576 8.04674 8.04672
            CHANNELS 3 Zrotation Xrotation Yrotation
            End Site
            {
              OFFSET 1 0 0
            }
          }
        }
      }
      JOINT rCollar
      {
        OFFSET -2.68224 19.2634 -4.8768
        CHANNELS 3 Zrotation Xrotation Yrotation
        JOINT rShldr
        {
          OFFSET -8.77824 -1.95073 1.46304
          CHANNELS 3 Zrotation Xrotation Yrotation
          JOINT rForeArm
          {
            OFFSET -28.1742 -1.7115 0.48768
            CHANNELS 3 Zrotation Xrotation Yrotation
            JOINT rHand
            {
              OFFSET -22.5879 0.773209 7.07136
              CHANNELS 3 Zrotation Xrotation Yrotation
              JOINT rThumb1
              {
                OFFSET -1.2192 -0.487915 3.41376
                CHANNELS 3 Zrotation Xrotation Yrotation
                JOINT rThumb2
                {
                  OFFSET -3.37035 -0.52449 3.41376
                  CHANNELS 3 Zrotation Xrotation Yrotation
                  End Site
                  {
                    OFFSET -1.78271 -1.18214 1.43049
                  }
                }
              }
              JOINT rIndex1
              {
                OFFSET -7.75947 0.938293 5.60832
                CHANNELS 3 Zrotation Xrotation Yrotation
                JOINT rIndex2
                {
                  OFFSET -2.54057 -0.884171 1.56538
                  CHANNELS 3 Zrotation Xrotation Yrotation
                  End Site
                  {
                    OFFSET -1.62519 -0.234802 1.16502
                  }
                }
              }
              JOINT rMid1
              {
                OFFSET -8.24714 1.18213 3.41376
                CHANNELS 3 Zrotation Xrotation Yrotation
                JOINT rMid2
                {
                  OFFSET -3.10165 -0.590103 1.0647
                  CHANNELS 3 Zrotation Xrotation Yrotation
                  End Site
                  {
                    OFFSET -2.48547 -0.328903 0.83742
                  }
                }
              }
              JOINT rRing1
              {
                OFFSET -8.82822 0.546677 1.51678
                CHANNELS 3 Zrotation Xrotation Yrotation
                JOINT rRing2
                {
                  OFFSET -2.60934 -0.819778 -0.0198488
                  CHANNELS 3 Zrotation Xrotation Yrotation
                  End Site
                  {
                    OFFSET -2.33842 -0.294052 0.168128
                  }
                }
              }
              JOINT rPinky1
              {
                OFFSET -8.27202 -0.0477905 -0.4584
                CHANNELS 3 Zrotation Xrotation Yrotation
                JOINT rPinky2
                {
                  OFFSET -1.82734 -0.647385 -0.700984
                  CHANNELS 3 Zrotation Xrotation Yrotation
                  End Site
                  {
                    OFFSET -1.69225 -0.51767 -0.607171
                  }
                }
              }
            }
          }
        }
      }
      JOINT lCollar
      {
        OFFSET 2.68224 19.2634 -4.8768
        CHANNELS 3 Zrotation Xrotation Yrotation
        JOINT lShldr
        {
          OFFSET 8.77824 -1.95073 1.46304
          CHANNELS 3 Zrotation Xrotation Yrotation
          JOINT lForeArm
          {
            OFFSET 28.1742 -1.7115 0.48768
            CHANNELS 3 Zrotation Xrotation Yrotation
            JOINT lHand
            {
              OFFSET 22.5879 0.773209 7.07136
              CHANNELS 3 Zrotation Xrotation Yrotation
              JOINT lThumb1
              {
                OFFSET 1.2192 -0.487915 3.41376
                CHANNELS 3 Zrotation Xrotation Yrotation
                JOINT lThumb2
                {
                  OFFSET 3.37035 -0.52449 3.41376
                  CHANNELS 3 Zrotation Xrotation Yrotation
                  End Site
                  {
                    OFFSET 1.78271 -1.18214 1.43049
                  }
                }
              }
              JOINT lIndex1
              {
                OFFSET 7.75947 0.938293 5.60832
                CHANNELS 3 Zrotation Xrotation Yrotation
                JOINT lIndex2
                {
                  OFFSET 2.54057 -0.884171 1.56538
                  CHANNELS 3 Zrotation Xrotation Yrotation
                  End Site
                  {
                    OFFSET 1.62519 -0.234802 1.16502
                  }
                }
              }
              JOINT lMid1
              {
                OFFSET 8.24714 1.18213 3.41376
                CHANNELS 3 Zrotation Xrotation Yrotation
                JOINT lMid2
                {
                  OFFSET 3.10165 -0.590103 1.0647
                  CHANNELS 3 Zrotation Xrotation Yrotation
                  End Site
                  {
                    OFFSET 2.48547 -0.328903 0.83742
                  }
                }
              }
              JOINT lRing1
              {
                OFFSET 8.82822 0.546677 1.51678
                CHANNELS 3 Zrotation Xrotation Yrotation
                JOINT lRing2
                {
                  OFFSET 2.60934 -0.819778 -0.0198488
                  CHANNELS 3 Zrotation Xrotation Yrotation
                  End Site
                  {
                    OFFSET 2.33842 -0.294052 0.168128
                  }
                }
              }
              JOINT lPinky1
              {
                OFFSET 8.27202 -0.0477905 -0.4584
                CHANNELS 3 Zrotation Xrotation Yrotation
                JOINT lPinky2
                {
                  OFFSET 1.82734 -0.647385 -0.700984
                  CHANNELS 3 Zrotation Xrotation Yrotation
                  End Site
                  {
                    OFFSET 1.69225 -0.51767 -0.607171
                  }
                }
              }
            }
          }
        }
      }
    }
  }
  JOINT rButtock
  {
    OFFSET -8.77824 4.35084 1.2192
    CHANNELS 3 Zrotation Xrotation Yrotation
    JOINT rThigh
    {
      OFFSET 0 -1.70687 -2.19456
      CHANNELS 3 Zrotation Xrotation Yrotation
      JOINT rShin
      {
        OFFSET 0 -36.8199 0.73152
        CHANNELS 3 Zrotation Xrotation Yrotation
        JOINT rFoot
        {
          OFFSET 0.73152 -45.1104 -5.12064
          CHANNELS 3 Zrotation Xrotation Yrotation
          End Site
          {
            OFFSET -1.1221 -3.69964 12.103
          }
        }
      }
    }
  }
  JOINT lButtock
  {
    OFFSET 8.77824 4.35084 1.2192
    CHANNELS 3 Zrotation Xrotation Yrotation
    JOINT lThigh
    {
      OFFSET 0 -1.70687 -2.19456
      CHANNELS 3 Zrotation Xrotation Yrotation
      JOINT lShin
      {
        OFFSET 0 -36.8199 0.73152
        CHANNELS 3 Zrotation Xrotation Yrotation
        JOINT lFoot
        {
          OFFSET -0.73152 -45.1104 -5.12064
          CHANNELS 3 Zrotation Xrotation Yrotation
          End Site
          {
            OFFSET 1.1221 -3.69964 12.103
          }
        }
      }
    }
  }
}
MOTION
Frames:	5
Frame Time:	0.03333
1.9785000000000001 73.5273 14.6507 -1.147457 13.26861 1.13866 -12.313835 9.876829 -128.160234 1.363914 4.845657 141.781409 -11.08118 20.211073 -23.652835 23.737382 -24.008163 -8.827339 0.003002 -0.0 -0.002396 0.003002 -0.0 -0.002396 -6.250789 26.219307 7.467558 -61.886659 32.264429 114.382641 12.891455 26.803274 -126.034618 136.456474 -48.860699 130.749961 1.84261 -1.827056 -0.254275 -167.400467 -76.11775 113.623288 103.838596 -76.254925 53.540072 -161.584015 -24.247561 115.626961 0.047014 -0.138719 -0.026343 -163.989819 -6.976278 143.570444 -78.571711 -72.042435 -95.867302 -52.959831 -81.957838 -78.817389 -145.07946 11.767485 -141.738115 6.200403 10.496209 0.884276 152.135771 14.084225 -157.564211 -109.203235 5.829257 151.139411 33.235315 73.295637 -102.494855 5.560763 10.139436 0.768272 99.394904 37.101731 -57.491985 162.861334 -32.16694 -78.486561 135.711512 8.931457 -113.079406 37.090488 50.154369 -21.640088 -89.034518 -81.394264 -59.759678 42.442743 58.391168 -36.313536 0.021452 -1.724875 0.544297 156.073739 -49.07977 -178.01022 -12.988372 44.344405 -10.760414 -14.125913 41.897788 -8.046412 179.92931 75.750026 0.054485 172.124713 27.350659 85.41158 105.467632 -3.172276 18.777366 -113.313271 -35.376257 157.882831 -0.004129 6.5e-05 -0.002065 -13.772774 -49.431807 -180.0 -29.306853 -74.117706 38.122806 133.462197 -32.436088 -155.520116
2.1532 73.9743 15.597800000000001 -1.929886 12.030702 -0.86036 -13.776294 16.597918 -0.0 4.931271 -8.031786 14.060194 -15.913308 27.17611 -73.929091 41.870323 4.199957 37.78602 0.000937 0.0 0.001648 0.000163 0.0 0.000536 2.529912 -18.881288 -3.793167 -106.049909 -13.315798 171.090534 89.179248 -16.483057 -98.491232 171.236309 16.077422 158.895917 -78.030401 38.689478 42.412809 -108.345222 -11.274716 75.625867 10.211771 -18.050516 -4.565242 -159.124865 -13.318936 110.668421 -39.290057 53.36618 32.877067 167.980014 -64.088162 132.985434 -0.001647 0.063955 0.018912 -6.634191 62.751365 19.322638 -0.000131 0.000318 -0.001768 -20.001161 -37.797316 -20.826994 142.974235 39.431849 -147.390498 -111.631653 -29.641972 172.549676 87.181123 8.509865 -113.769022 -30.116214 -60.868799 -17.348362 -4.53106 -4.51402 0.521205 9.859925 10.278296 -5.609481 151.351609 -17.158505 -121.133951 0.855158 22.143169 4.490895 -6.534115 -20.414796 2.717094 -91.940793 -78.565186 -63.016334 0.021898 -1.726089 0.542191 -8.824047 17.667753 -2.427472 141.829327 2.247106 138.802416 24.008809 -39.149649 25.602576 179.991648 75.748595 0.005715 171.675109 21.128666 22.094386 121.586364 53.299337 -11.068467 23.772681 51.81253 -117.450182 179.970831 75.751685 0.024001 169.22721 29.59514 74.91076 72.472455 8.621066 -5.799411 -25.835609 6.634769 -64.297565
2.3238000000000003 74.5826 16.6107 -2.785238 11.043464 -2.799964 -11.507777 15.975726 -126.851385 1.851933 5.212014 139.14497 -14.251302 32.427228 -110.13974 40.330501 26.955557 67.792944 -0.002228 -0.0 0.001473 0.0037 -0.0 -0.003656 -155.416924 -2.951323 161.71896 -112.793519 -69.110799 -74.268264 -6.796653 60.442532 -110.808713 122.400199 -56.334049 116.678131 1.588934 -1.576409 -0.22243 -142.66724 -49.891728 121.334728 179.288147 -59.501331 116.313162 80.257898 -66.706689 25.471371 179.73569 -58.401151 141.961087 -163.439778 -4.744424 143.042628 -145.118423 0.185561 -179.186414 -151.392213 -30.390484 -174.192412 -25.535428 -38.089175 -24.595649 63.444445 85.433457 -24.514937 150.168355 21.535072 -155.274928 -121.400818 -15.826637 151.166694 -179.144732 -49.556275 -74.454666 -174.879486 -14.721645 -143.509408 -4.53055 -4.514241 0.520679 138.106028 -40.76875 -121.347538 100.824252 37.733935 -85.162036 37.185389 46.045242 -20.957598 8.417421 20.880118 -5.646289 42.024984 58.556433 -36.137279 0.00072 0.063418 -0.021961 6.628706 62.752393 -19.313773 136.042236 -11.443314 133.394577 155.182876 37.189749 146.149707 -0.000369 0.000907 0.000474 -19.316622 -60.337385 15.922269 127.152143 50.673561 138.908895 86.250821 70.249178 0.100432 179.993198 75.750308 0.004654 171.666635 31.587957 -164.376716 -25.776355 -72.148916 48.240701 99.911659 -45.967802 176.565874
2.5029 75.3993 17.6512 -3.119328 10.174527 -4.937938 -11.083247 21.990643 -63.426883 8.195623 -0.664897 74.705052 -11.117619 34.484121 -133.334536 32.521621 39.224459 90.714372 0.004276 0.0 0.005136 0.0029 -0.0 -0.001625 -0.218164 1.287373 0.288696 117.97824 -53.673579 55.450843 52.366344 58.295406 40.279138 -86.721682 83.054688 77.294104 -89.13517 38.427834 50.299962 -134.524355 -22.0244 78.958603 -150.88511 -16.291758 120.978248 82.49843 -69.225961 30.823488 -151.476279 17.841718 137.538968 3.075099 0.692625 0.430572 -145.099719 -1.522424 -178.650644 -141.694374 -56.538758 -163.984649 -12.377124 -24.157511 -11.758014 -80.976048 -54.306191 -81.040831 -2.459693 -18.216382 3.668959 -171.217435 -51.591559 -68.318161 161.038778 7.606478 117.13349 3.869094 -1.445924 1.804675 -1.589087 -1.576362 0.222082 138.475279 -42.113689 -120.057565 -24.07556 -42.306553 5.559055 162.110247 -21.352658 -111.801166 0.398553 1.151505 -0.222703 163.461813 -5.364428 -143.413117 145.099926 -1.522621 178.648839 154.32815 71.756088 -169.661079 145.498598 13.104317 142.110119 147.708404 12.089134 141.786412 0.006195 0.000274 0.006195 -29.925616 -68.001042 96.222381 124.826527 -41.680607 47.960712 76.732697 62.432753 -159.59351 -0.000667 0.000273 0.000858 -7.888273 -37.635971 -5.61167 23.963711 72.755808 101.894826 168.81967 67.743958 94.639023
2.7275 76.3797 18.5893 -2.971862 9.76791 -7.342154 -11.410065 23.225092 -128.402188 2.207304 6.331438 138.212481 4.002591 19.469063 63.011391 -32.614187 -10.342044 -97.215354 0.003311 0.0 0.000909 -0.001991 0.0 -0.002709 -59.834106 -86.721065 -81.634923 -36.673318 -52.2161 -87.949151 -173.044313 36.764433 -105.966153 -12.206892 60.775685 9.261207 -173.976745 -11.643379 89.880575 178.860819 -17.254024 96.027397 4.607457 -7.831172 -2.381063 148.789179 -56.50238 85.078725 89.034867 -81.393771 59.759976 2.683815 0.996238 0.311537 -0.000864 -0.018527 -0.005699 -156.335443 -46.646586 177.611398 -136.958995 -9.524076 -134.263034 -157.199487 43.277226 -146.662494 -2.460642 -18.216326 3.668718 -92.104813 13.349174 -44.032404 51.097077 73.686785 -119.159895 4.23112 10.450789 0.521516 68.483073 37.953148 -35.659499 -172.607502 -51.563334 -75.474004 0.326928 0.53032 -0.184718 167.735379 -22.192154 -109.416719 -12.451818 -38.486706 3.180292 -11.264036 -24.953296 1.509615 145.120357 0.267417 179.21313 -11.655137 22.920382 6.369524 140.593889 -1.002393 137.666646 76.069283 -52.959353 75.959004 -179.995967 75.74967 -0.002759 170.43548 -1.348106 -82.051514 -113.761877 18.960112 -175.215888 -146.99917 -19.557682 121.839885 179.999378 75.748228 0.001304 172.518388 41.697833 11.167875 32.821399 63.125611 44.573882 -26.126521 6.610301 -64.421858
